<mxfile host="app.diagrams.net" modified="2024-03-28T07:17:17.527Z" agent="Mozilla/5.0 (Macintosh; Intel Mac OS X 10_15_7) AppleWebKit/537.36 (KHTML, like Gecko) Chrome/122.0.0.0 Safari/537.36" etag="QthO4uq-eqGVvPhRVDo8" version="23.0.0" type="github">
  <diagram name="第 1 页" id="c8fIhuiG2VhrQn8hY_Cm">
    <mxGraphModel dx="1834" dy="1586" grid="1" gridSize="10" guides="1" tooltips="1" connect="1" arrows="1" fold="1" page="0" pageScale="1" pageWidth="827" pageHeight="1169" math="0" shadow="0">
      <root>
        <mxCell id="0" />
        <mxCell id="1" parent="0" />
        <mxCell id="uIM-vCdFYYvPqXACWQKx-3" value="" style="edgeStyle=orthogonalEdgeStyle;rounded=0;orthogonalLoop=1;jettySize=auto;html=1;" edge="1" parent="1" source="uIM-vCdFYYvPqXACWQKx-1" target="uIM-vCdFYYvPqXACWQKx-2">
          <mxGeometry relative="1" as="geometry" />
        </mxCell>
        <mxCell id="uIM-vCdFYYvPqXACWQKx-1" value="恒星简历" style="rounded=0;whiteSpace=wrap;html=1;fontSize=18;" vertex="1" parent="1">
          <mxGeometry x="-120" y="120" width="120" height="40" as="geometry" />
        </mxCell>
        <mxCell id="uIM-vCdFYYvPqXACWQKx-2" value="获取密号" style="rounded=0;whiteSpace=wrap;html=1;fontSize=18;" vertex="1" parent="1">
          <mxGeometry x="80" y="120" width="120" height="40" as="geometry" />
        </mxCell>
        <mxCell id="uIM-vCdFYYvPqXACWQKx-15" style="edgeStyle=orthogonalEdgeStyle;rounded=0;orthogonalLoop=1;jettySize=auto;html=1;entryX=0;entryY=0.5;entryDx=0;entryDy=0;" edge="1" parent="1" source="uIM-vCdFYYvPqXACWQKx-7" target="uIM-vCdFYYvPqXACWQKx-13">
          <mxGeometry relative="1" as="geometry" />
        </mxCell>
        <mxCell id="uIM-vCdFYYvPqXACWQKx-7" value="魔方简历库" style="rounded=0;whiteSpace=wrap;html=1;fontSize=18;" vertex="1" parent="1">
          <mxGeometry x="-160" y="-480" width="120" height="40" as="geometry" />
        </mxCell>
        <mxCell id="uIM-vCdFYYvPqXACWQKx-10" style="edgeStyle=orthogonalEdgeStyle;rounded=0;orthogonalLoop=1;jettySize=auto;html=1;entryX=0;entryY=0.5;entryDx=0;entryDy=0;" edge="1" parent="1" source="uIM-vCdFYYvPqXACWQKx-9" target="uIM-vCdFYYvPqXACWQKx-7">
          <mxGeometry relative="1" as="geometry" />
        </mxCell>
        <mxCell id="uIM-vCdFYYvPqXACWQKx-12" style="edgeStyle=orthogonalEdgeStyle;rounded=0;orthogonalLoop=1;jettySize=auto;html=1;entryX=0;entryY=0.5;entryDx=0;entryDy=0;" edge="1" parent="1" source="uIM-vCdFYYvPqXACWQKx-9" target="uIM-vCdFYYvPqXACWQKx-11">
          <mxGeometry relative="1" as="geometry" />
        </mxCell>
        <mxCell id="uIM-vCdFYYvPqXACWQKx-9" value="" style="image;html=1;image=img/lib/clip_art/people/Suit_Man_Blue_128x128.png" vertex="1" parent="1">
          <mxGeometry x="-350" y="-420" width="80" height="80" as="geometry" />
        </mxCell>
        <mxCell id="uIM-vCdFYYvPqXACWQKx-16" style="edgeStyle=orthogonalEdgeStyle;rounded=0;orthogonalLoop=1;jettySize=auto;html=1;entryX=0;entryY=0.5;entryDx=0;entryDy=0;" edge="1" parent="1" source="uIM-vCdFYYvPqXACWQKx-11" target="uIM-vCdFYYvPqXACWQKx-13">
          <mxGeometry relative="1" as="geometry" />
        </mxCell>
        <mxCell id="uIM-vCdFYYvPqXACWQKx-11" value="私有人才库" style="rounded=0;whiteSpace=wrap;html=1;fontSize=18;" vertex="1" parent="1">
          <mxGeometry x="-160" y="-340" width="120" height="40" as="geometry" />
        </mxCell>
        <mxCell id="uIM-vCdFYYvPqXACWQKx-18" value="" style="edgeStyle=orthogonalEdgeStyle;rounded=0;orthogonalLoop=1;jettySize=auto;html=1;" edge="1" parent="1" source="uIM-vCdFYYvPqXACWQKx-13" target="uIM-vCdFYYvPqXACWQKx-17">
          <mxGeometry relative="1" as="geometry" />
        </mxCell>
        <mxCell id="uIM-vCdFYYvPqXACWQKx-13" value="简历详情页" style="rounded=0;whiteSpace=wrap;html=1;fontSize=18;" vertex="1" parent="1">
          <mxGeometry x="40" y="-400" width="120" height="40" as="geometry" />
        </mxCell>
        <mxCell id="uIM-vCdFYYvPqXACWQKx-17" value="获取密号" style="rounded=0;whiteSpace=wrap;html=1;fontSize=18;" vertex="1" parent="1">
          <mxGeometry x="200" y="-400" width="120" height="40" as="geometry" />
        </mxCell>
      </root>
    </mxGraphModel>
  </diagram>
</mxfile>
